<svg width="26" height="24" viewBox="0 0 26 24" fill="none" xmlns="http://www.w3.org/2000/svg">
<g clip-path="url(#clip0_709_340)">
<path d="M11.8105 16.8769H14.1351V13.3814H17.622V11.0511H14.1351V7.55555H11.8105V11.0511H8.32357V13.3814H11.8105V16.8769ZM12.9728 22.7027C11.5199 22.7027 10.1592 22.4262 8.89076 21.8731C7.62153 21.3193 6.51733 20.5712 5.57819 19.629C4.63827 18.6876 3.89206 17.5806 3.33958 16.3083C2.78788 15.0367 2.51201 13.6727 2.51201 12.2162C2.51201 10.7598 2.78788 9.39536 3.33958 8.12299C3.89206 6.85142 4.63827 5.7445 5.57819 4.80228C6.51733 3.86083 7.62153 3.11356 8.89076 2.5605C10.1592 2.00666 11.5199 1.72974 12.9728 1.72974C14.4257 1.72974 15.7867 2.00666 17.056 2.5605C18.3245 3.11356 19.4287 3.86083 20.3686 4.80228C21.3077 5.7445 22.0535 6.85142 22.6061 8.12299C23.1578 9.39536 23.4337 10.7598 23.4337 12.2162C23.4337 13.6727 23.1578 15.0367 22.6061 16.3083C22.0535 17.5806 21.3077 18.6876 20.3686 19.629C19.4287 20.5712 18.3245 21.3193 17.056 21.8731C15.7867 22.4262 14.4257 22.7027 12.9728 22.7027Z" fill="#CEFF44"/>
<path d="M1.72549 6.61817C1.72549 3.91836 3.83833 1.72974 6.44464 1.72974M24.2201 6.61817C24.2201 3.91836 22.1072 1.72974 19.5009 1.72974" stroke="#CEFF44" stroke-width="2"/>
<path d="M10.4608 20.5405C10.4608 22.272 9.06057 23.6757 7.33333 23.6757C5.6061 23.6757 4.20588 22.272 4.20588 20.5405C4.20588 18.809 5.6061 17.4054 7.33333 17.4054C9.06057 17.4054 10.4608 18.809 10.4608 20.5405ZM21.6765 20.5405C21.6765 22.272 20.2763 23.6757 18.549 23.6757C16.8218 23.6757 15.4216 22.272 15.4216 20.5405C15.4216 18.809 16.8218 17.4054 18.549 17.4054C20.2763 17.4054 21.6765 18.809 21.6765 20.5405Z" stroke="#CEFF44" stroke-width="0.5"/>
</g>
<defs>
<clipPath id="clip0_709_340">
<rect width="25.8824" height="24" fill="white"/>
</clipPath>
</defs>
</svg>
