<svg width="165" height="204" viewBox="0 0 165 204" fill="none" xmlns="http://www.w3.org/2000/svg">
<path d="M58.3142 197.537H50.7322L53.2154 194.623C55.5993 191.809 57.8838 188.763 57.8838 186.048C57.8838 182.207 54.7715 178.334 49.8383 178.334C45.3686 178.334 41.2961 181.479 41.2961 187.439H46.7591C46.7591 184.36 48.9443 183.697 49.8714 183.697C50.7985 183.697 52.4208 184.128 52.4208 186.081C52.4208 187.472 50.8647 189.525 50.2025 190.319L42.0908 199.888V203H58.3142V197.537Z" fill="black"/>
<path d="M62.4769 184.227H69.9927L66.2514 187.902V191.014C68.9994 191.147 71.9792 192.571 71.9792 195.12C71.9792 196.709 70.8204 198.067 68.7345 198.067C66.7811 198.067 65.4567 196.113 64.7283 194.822L60.1924 197.438C61.4505 200.086 64.5628 203.464 68.7345 203.464C73.1712 203.464 77.376 200.053 77.376 195.484C77.376 191.776 75.1908 189.193 72.9394 188.167L76.8132 184.227V178.83H62.4769V184.227Z" fill="black"/>
<path d="M79.7394 200.384C79.7394 201.974 81.0638 203.298 82.6861 203.298C84.2754 203.298 85.5997 201.974 85.5997 200.384C85.5997 198.762 84.2754 197.438 82.6861 197.438C81.0638 197.438 79.7394 198.762 79.7394 200.384ZM79.7394 187.902C79.7394 189.525 81.0638 190.849 82.6861 190.849C84.2754 190.849 85.5997 189.525 85.5997 187.902C85.5997 186.313 84.2754 184.989 82.6861 184.989C81.0638 184.989 79.7394 186.313 79.7394 187.902Z" fill="black"/>
<path d="M88.0583 196.875C89.2172 199.49 91.6341 203.497 96.4681 203.497C101.898 203.497 105.043 199.888 105.043 195.286C105.043 189.16 100.375 186.975 95.3755 186.975C94.9119 186.975 94.7795 187.008 94.4153 187.041V184.227H103.487V178.83H89.0185V191.445L91.7666 192.869C92.9585 192.405 94.316 192.008 95.2099 192.008C97.3951 192.008 99.9445 192.968 99.9445 195.186C99.9445 196.941 98.4877 198.1 96.4681 198.1C94.7795 198.1 93.3889 196.411 92.6605 194.888L88.0583 196.875Z" fill="black"/>
<path d="M110.322 203H116.248L121.877 191.975C122.936 189.988 123.301 188.3 123.367 187.008V186.611V186.578C123.367 182.009 119.659 178.334 115.09 178.334C110.521 178.334 106.812 182.042 106.812 186.611C106.812 190.948 110.189 194.524 114.461 194.855L110.322 203ZM118.036 186.578C118.036 188.3 116.712 189.657 114.99 189.657C113.269 189.657 111.911 188.3 111.911 186.578C111.911 184.856 113.269 183.532 114.99 183.532C116.712 183.532 118.036 184.856 118.036 186.578Z" fill="black"/>
<path d="M75.2919 107.59H90.1114V85.3063H112.341V70.4504H90.1114V48.1666H75.2919V70.4504H53.0628V85.3063H75.2919V107.59ZM82.7017 144.73C73.4395 144.73 64.7652 142.967 56.6787 139.441C48.5874 135.91 41.548 131.142 35.561 125.135C29.569 119.133 24.812 112.077 21.2899 103.965C17.7728 95.8589 16.0142 87.1633 16.0142 77.8784C16.0142 68.5935 17.7728 59.8954 21.2899 51.784C24.812 43.6778 29.569 36.6212 35.561 30.6145C41.548 24.6127 48.5874 19.8489 56.6787 16.3232C64.7652 12.7924 73.4395 11.027 82.7017 11.027C91.9638 11.027 100.641 12.7924 108.732 16.3232C116.819 19.8489 123.858 24.6127 129.85 30.6145C135.837 36.6212 140.591 43.6778 144.114 51.784C147.631 59.8954 149.39 68.5935 149.39 77.8784C149.39 87.1633 147.631 95.8589 144.114 103.965C140.591 112.077 135.837 119.133 129.85 125.135C123.858 131.142 116.819 135.91 108.732 139.441C100.641 142.967 91.9638 144.73 82.7017 144.73Z" fill="black"/>
<path fill-rule="evenodd" clip-rule="evenodd" d="M41.0846 18.527C28.8584 18.527 18.5 28.8703 18.5 42.1908H3.5C3.5 21.0887 20.0803 3.52703 41.0846 3.52703V18.527ZM124.319 3.52703C145.322 3.52703 161.903 21.0887 161.903 42.1908H146.903C146.903 28.8703 136.544 18.527 124.319 18.527V3.52703Z" fill="black"/>
<path fill-rule="evenodd" clip-rule="evenodd" d="M46.75 112.459C36.5708 112.459 28.3125 120.733 28.3125 130.946C28.3125 141.159 36.5708 149.432 46.75 149.432C56.9292 149.432 65.1875 141.159 65.1875 130.946C65.1875 120.733 56.9292 112.459 46.75 112.459ZM25.3125 130.946C25.3125 119.083 34.907 109.459 46.75 109.459C58.593 109.459 68.1875 119.083 68.1875 130.946C68.1875 142.809 58.593 152.432 46.75 152.432C34.907 152.432 25.3125 142.809 25.3125 130.946ZM118.25 112.459C108.071 112.459 99.8125 120.733 99.8125 130.946C99.8125 141.159 108.071 149.432 118.25 149.432C128.429 149.432 136.688 141.159 136.688 130.946C136.688 120.733 128.429 112.459 118.25 112.459ZM96.8125 130.946C96.8125 119.083 106.407 109.459 118.25 109.459C130.093 109.459 139.688 119.083 139.688 130.946C139.688 142.809 130.093 152.432 118.25 152.432C106.407 152.432 96.8125 142.809 96.8125 130.946Z" fill="black"/>
</svg>
