<svg width="134" height="134" viewBox="0 0 134 134" fill="none" xmlns="http://www.w3.org/2000/svg">
<rect width="134" height="134" rx="20" fill="#CEFF44"/>
<g clip-path="url(#clip0_243_112)">
<path d="M64.03 80.118H70.2709V70.7336H79.6323V64.4773H70.2709V55.093H64.03V64.4773H54.6687V70.7336H64.03V80.118ZM67.1505 95.7585C63.2499 95.7585 59.5969 95.0161 56.1914 93.5312C52.7839 92.0444 49.8195 90.0361 47.2982 87.5065C44.7748 84.979 42.7714 82.0073 41.2882 78.5914C39.807 75.1776 39.0664 71.5156 39.0664 67.6055C39.0664 63.6953 39.807 60.0323 41.2882 56.6164C42.7714 53.2026 44.7748 50.2308 47.2982 47.7012C49.8195 45.1737 52.7839 43.1676 56.1914 41.6828C59.5969 40.1958 63.2499 39.4524 67.1505 39.4524C71.051 39.4524 74.7051 40.1958 78.1126 41.6828C81.5181 43.1676 84.4825 45.1737 87.0059 47.7012C89.5272 50.2308 91.5294 53.2026 93.0129 56.6164C94.4941 60.0323 95.2348 63.6953 95.2348 67.6055C95.2348 71.5156 94.4941 75.1776 93.0129 78.5914C91.5294 82.0073 89.5272 84.979 87.0059 87.5065C84.4825 90.0361 81.5181 92.0444 78.1126 93.5312C74.7051 95.0161 71.051 95.7585 67.1505 95.7585Z" fill="black"/>
<path fill-rule="evenodd" clip-rule="evenodd" d="M49.6244 42.6109C44.4756 42.6109 40.1133 46.9667 40.1133 52.5764H33.7964C33.7964 43.6897 40.7788 36.2939 49.6244 36.2939V42.6109ZM84.6766 36.2939C93.522 36.2939 100.504 43.6897 100.504 52.5764H94.1875C94.1875 46.9667 89.8252 42.6109 84.6766 42.6109V36.2939Z" fill="black"/>
<path fill-rule="evenodd" clip-rule="evenodd" d="M52.0101 82.1686C47.7234 82.1686 44.2456 85.6527 44.2456 89.9538C44.2456 94.2548 47.7234 97.739 52.0101 97.739C56.2969 97.739 59.7747 94.2548 59.7747 89.9538C59.7747 85.6527 56.2969 82.1686 52.0101 82.1686ZM42.9822 89.9538C42.9822 84.9579 47.0227 80.9052 52.0101 80.9052C56.9976 80.9052 61.0381 84.9579 61.0381 89.9538C61.0381 94.9497 56.9976 99.0024 52.0101 99.0024C47.0227 99.0024 42.9822 94.9497 42.9822 89.9538ZM82.1209 82.1686C77.8341 82.1686 74.3563 85.6527 74.3563 89.9538C74.3563 94.2548 77.8341 97.739 82.1209 97.739C86.4076 97.739 89.8854 94.2548 89.8854 89.9538C89.8854 85.6527 86.4077 82.1686 82.1209 82.1686ZM73.0929 89.9538C73.0929 84.9579 77.1334 80.9052 82.1209 80.9052C87.1083 80.9052 91.1488 84.9579 91.1488 89.9538C91.1488 94.9497 87.1083 99.0024 82.1209 99.0024C77.1334 99.0024 73.0929 94.9497 73.0929 89.9538Z" fill="black"/>
</g>
<defs>
<clipPath id="clip0_243_112">
<rect width="69.4863" height="64.4328" fill="white" transform="translate(32.3223 34.8086)"/>
</clipPath>
</defs>
</svg>
