<svg width="58" height="53" viewBox="0 0 58 53" fill="none" xmlns="http://www.w3.org/2000/svg">
<path d="M26.0814 37.2698H31.2149V29.5505H38.9152V24.4044H31.2149V16.6851H26.0814V24.4044H18.3811V29.5505H26.0814V37.2698ZM28.6481 50.1351C25.4397 50.1351 22.4349 49.5244 19.6336 48.303C16.8308 47.08 14.3923 45.4281 12.3184 43.3473C10.2427 41.2683 8.59485 38.8239 7.37478 36.0141C6.15644 33.206 5.54724 30.1938 5.54724 26.9775C5.54724 23.7611 6.15644 20.7481 7.37478 17.9382C8.59485 15.1302 10.2427 12.6857 12.3184 10.605C14.3923 8.52596 16.8308 6.87575 19.6336 5.65441C22.4349 4.43134 25.4397 3.8198 28.6481 3.8198C31.8566 3.8198 34.8623 4.43134 37.6652 5.65441C40.4664 6.87575 42.9048 8.52596 44.9805 10.605C47.0544 12.6857 48.7013 15.1302 49.9216 17.9382C51.14 20.7481 51.7492 23.7611 51.7492 26.9775C51.7492 30.1938 51.14 33.206 49.9216 36.0141C48.7013 38.8239 47.0544 41.2683 44.9805 43.3473C42.9048 45.4281 40.4664 47.08 37.6652 48.303C34.8623 49.5244 31.8566 50.1351 28.6481 50.1351Z" fill="black"/>
<path d="M3.8103 14.6151C3.8103 8.65302 8.47616 3.8198 14.2318 3.8198M53.4858 14.6151C53.4858 8.65302 48.8199 3.8198 43.0644 3.8198" stroke="black" stroke-width="5.19608"/>
<path d="M23.1008 45.3604C23.1008 49.184 20.0086 52.2838 16.1943 52.2838C12.38 52.2838 9.28784 49.184 9.28784 45.3604C9.28784 41.5367 12.38 38.4369 16.1943 38.4369C20.0086 38.4369 23.1008 41.5367 23.1008 45.3604ZM47.8687 45.3604C47.8687 49.184 44.7766 52.2838 40.9623 52.2838C37.148 52.2838 34.0558 49.184 34.0558 45.3604C34.0558 41.5367 37.148 38.4369 40.9623 38.4369C44.7766 38.4369 47.8687 41.5367 47.8687 45.3604Z" stroke="black" stroke-width="1.03922"/>
</svg>
