<svg width="24" height="21" viewBox="0 0 24 21" fill="none" xmlns="http://www.w3.org/2000/svg">
<path d="M19.0909 6.3V4.2H16.9697V2.1H19.0909V0H21.2121V2.1H23.3333V4.2H21.2121V6.3H19.0909ZM2.12121 21C1.53788 21 1.03869 20.7945 0.623636 20.3836C0.207879 19.972 0 19.4775 0 18.9V6.3C0 5.7225 0.207879 5.2283 0.623636 4.8174C1.03869 4.4058 1.53788 4.2 2.12121 4.2H5.46212L7.42424 2.1H13.7879V4.2H8.35227L6.41667 6.3H2.12121V18.9H19.0909V9.45H21.2121V18.9C21.2121 19.4775 21.0046 19.972 20.5895 20.3836C20.1738 20.7945 19.6742 21 19.0909 21H2.12121ZM10.6061 17.325C11.9318 17.325 13.0589 16.8658 13.9873 15.9474C14.915 15.0283 15.3788 13.9125 15.3788 12.6C15.3788 11.2875 14.915 10.1717 13.9873 9.2526C13.0589 8.3342 11.9318 7.875 10.6061 7.875C9.2803 7.875 8.15323 8.3342 7.22485 9.2526C6.29717 10.1717 5.83333 11.2875 5.83333 12.6C5.83333 13.9125 6.29717 15.0283 7.22485 15.9474C8.15323 16.8658 9.2803 17.325 10.6061 17.325ZM10.6061 15.225C9.86364 15.225 9.23611 14.9712 8.72349 14.4637C8.21086 13.9562 7.95455 13.335 7.95455 12.6C7.95455 11.865 8.21086 11.2437 8.72349 10.7362C9.23611 10.2287 9.86364 9.975 10.6061 9.975C11.3485 9.975 11.976 10.2287 12.4886 10.7362C13.0013 11.2437 13.2576 11.865 13.2576 12.6C13.2576 13.335 13.0013 13.9562 12.4886 14.4637C11.976 14.9712 11.3485 15.225 10.6061 15.225Z" fill="#7000FF"/>
</svg>
