<svg width="25" height="24" viewBox="0 0 25 24" fill="none" xmlns="http://www.w3.org/2000/svg">
<g clip-path="url(#clip0_709_344)">
<path d="M2.88235 22C2.88235 19.8783 3.72521 17.8434 5.2255 16.3431C6.72579 14.8429 8.76062 14 10.8824 14C13.0041 14 15.0389 14.8429 16.5392 16.3431C18.0395 17.8434 18.8824 19.8783 18.8824 22H2.88235ZM10.8824 13C7.56735 13 4.88235 10.315 4.88235 7C4.88235 3.685 7.56735 1 10.8824 1C14.1974 1 16.8824 3.685 16.8824 7C16.8824 10.315 14.1974 13 10.8824 13ZM18.2454 15.233C19.775 15.6261 21.1416 16.4918 22.1507 17.7068C23.1597 18.9218 23.7598 20.4242 23.8654 22H20.8824C20.8824 19.39 19.8824 17.014 18.2454 15.233ZM16.2224 12.957C17.0604 12.2075 17.7305 11.2893 18.1889 10.2627C18.6473 9.23616 18.8836 8.12429 18.8824 7C18.8845 5.63347 18.5349 4.28937 17.8674 3.097C19 3.32459 20.0189 3.93737 20.7508 4.8312C21.4827 5.72502 21.8826 6.84473 21.8824 8C21.8826 8.71247 21.7306 9.41676 21.4365 10.0657C21.1423 10.7146 20.7129 11.2931 20.1769 11.7625C19.6409 12.2319 19.0108 12.5814 18.3288 12.7874C17.6468 12.9934 16.9286 13.0512 16.2224 12.957Z" fill="white"/>
</g>
<defs>
<clipPath id="clip0_709_344">
<rect width="24" height="24" fill="white" transform="translate(0.882355)"/>
</clipPath>
</defs>
</svg>
