<svg width="21" height="21" viewBox="0 0 21 21" fill="none" xmlns="http://www.w3.org/2000/svg">
<path d="M1.05 17.85C0.7525 17.85 0.50295 17.7492 0.30135 17.5476C0.10045 17.3467 0 17.0975 0 16.8C0 16.5025 0.10045 16.2533 0.30135 16.0524C0.50295 15.8508 0.7525 15.75 1.05 15.75H2.1V8.4C2.1 6.9125 2.54625 5.61295 3.43875 4.50135C4.33125 3.39045 5.46 2.66 6.825 2.31V1.575C6.825 1.1375 6.9783 0.7658 7.2849 0.4599C7.5908 0.1533 7.9625 0 8.4 0C8.8375 0 9.2092 0.1533 9.5151 0.4599C9.8217 0.7658 9.975 1.1375 9.975 1.575V2.31C10.4125 2.415 10.8237 2.56375 11.2087 2.75625C11.5937 2.94875 11.9525 3.185 12.285 3.465L11.5374 4.2126L10.7887 4.96125C10.4562 4.71625 10.0887 4.5283 9.68625 4.3974C9.28375 4.2658 8.855 4.2 8.4 4.2C7.245 4.2 6.25625 4.61125 5.43375 5.43375C4.61125 6.25625 4.2 7.245 4.2 8.4V15.75H12.6V12.6H14.7V15.75H15.75C16.0475 15.75 16.2967 15.8508 16.4976 16.0524C16.6992 16.2533 16.8 16.5025 16.8 16.8C16.8 17.0975 16.6992 17.3467 16.4976 17.5476C16.2967 17.7492 16.0475 17.85 15.75 17.85H1.05ZM8.4 21C7.8225 21 7.3283 20.7945 6.9174 20.3836C6.5058 19.972 6.3 19.4775 6.3 18.9H10.5C10.5 19.4775 10.2945 19.972 9.88365 20.3836C9.47205 20.7945 8.9775 21 8.4 21ZM16.8 11.55C16.5025 11.55 16.2533 11.4492 16.0524 11.2476C15.8508 11.0467 15.75 10.7975 15.75 10.5V8.4H13.65C13.3525 8.4 13.1033 8.2992 12.9024 8.0976C12.7008 7.8967 12.6 7.6475 12.6 7.35C12.6 7.0525 12.7008 6.80295 12.9024 6.60135C13.1033 6.40045 13.3525 6.3 13.65 6.3H15.75V4.2C15.75 3.9025 15.8508 3.65295 16.0524 3.45135C16.2533 3.25045 16.5025 3.15 16.8 3.15C17.0975 3.15 17.3467 3.25045 17.5476 3.45135C17.7492 3.65295 17.85 3.9025 17.85 4.2V6.3H19.95C20.2475 6.3 20.4967 6.40045 20.6976 6.60135C20.8992 6.80295 21 7.0525 21 7.35C21 7.6475 20.8992 7.8967 20.6976 8.0976C20.4967 8.2992 20.2475 8.4 19.95 8.4H17.85V10.5C17.85 10.7975 17.7492 11.0467 17.5476 11.2476C17.3467 11.4492 17.0975 11.55 16.8 11.55Z" fill="black"/>
</svg>
